<?xml version="1.0" encoding="utf-8"?>
<!-- Generator: Adobe Illustrator 19.2.1, SVG Export Plug-In . SVG Version: 6.00 Build 0)  -->
<svg version="1.1" id="Layer_1" xmlns="http://www.w3.org/2000/svg" xmlns:xlink="http://www.w3.org/1999/xlink" x="0px" y="0px"
	 viewBox="0 0 595.3 83.3" style="enable-background:new 0 0 595.3 83.3;" xml:space="preserve">
<style type="text/css">
	.st0{enable-background:new    ;}
	.st1{fill:#8A2525;}
	.st2{fill:none;stroke:#EC7170;stroke-width:4;stroke-miterlimit:10;}
</style>
<g class="st0">
	<path class="st1" d="M78.3,55.7h8.2v3.1H63.3v-3.1h9l1.4-1.4V40.7l-1.4-1.4h-9v-3.1h13.5v18.1L78.3,55.7z M74.4,24
		c2,0,3.6,1.5,3.6,3.6c0,1.9-1.5,3.4-3.6,3.4c-1.9,0-3.4-1.5-3.4-3.4C71,25.5,72.4,24,74.4,24z"/>
	<path class="st1" d="M100.7,54.3l1.4,1.4h3.3v3.1H92.9v-3.1h3.3l1.4-1.4V40.7l-1.4-1.4h-3.3v-3.1h7.9v4c1.5-2.4,4.5-4.7,8.3-4.7
		c4.8,0,8.5,2.8,8.5,8.5v10.3l1.4,1.4h3.3v3.1h-12.6v-3.1h3.3l1.4-1.4v-9.3c0-3.7-1.3-6.4-5.4-6.4c-3.8,0-6.4,2.2-8.2,5.5V54.3z"/>
	<path class="st1" d="M135.8,48c-4.6-1-7.2-2.7-7.2-6.2c0-3.8,3.6-6.3,8.4-6.3c3.4,0,6.7,1.2,8.6,3.4l0.7-0.2v-2.5h3v7.7h-2.5
		c-1.8-3.4-5.8-5.6-9.4-5.6c-3.1,0-5.4,1.3-5.4,3.4c0,2,1.9,2.7,4.7,3.2l8,1.7c3.7,0.8,6.1,2.3,6.1,6c0,4.3-3.4,6.9-9,6.9
		c-4.5,0-7.9-1.9-9.8-4l-0.7,0.5v2.7h-3v-8.3h2.8c2.6,3.9,6.3,6.1,10.6,6.1c3.4,0,5.7-1.3,5.7-3.9c0-2-1.7-2.7-3.9-3.1L135.8,48z"/>
	<path class="st1" d="M182,36.2v18.1l1.4,1.4h3.3v3.1h-7.9v-4c-1.5,2.4-4.5,4.7-8.3,4.7c-4.8,0-8.5-2.8-8.5-8.5V40.7l-1.4-1.4h-3.3
		v-3.1h7.9V50c0,4.2,1.6,6.4,5.4,6.4c3.8,0,6.4-2.2,8.2-5.5V40.7l-1.4-1.4h-3.3v-3.1H182z"/>
	<path class="st1" d="M209.1,55.7h8.2v3.1h-23.1v-3.1h9l1.4-1.4V30.6l-1.4-1.4h-9v-3.1h13.5v28.2L209.1,55.7z"/>
	<path class="st1" d="M229.1,39.3h-5.3v-3.1h6.7V28h3.4v8.2h13.3v3.1h-12l-1.4,1.4v7.4c0,5.9,2.7,8.3,7,8.3c3.6,0,6.1-1.9,8.2-4.7
		l2.1,2c-2.3,3.4-6,5.9-10.3,5.9c-6,0-10.3-3.1-10.3-11v-7.9L229.1,39.3z"/>
	<path class="st1" d="M264,42.2h13v3.9h-13V42.2z"/>
	<path class="st1" d="M303.2,35.5c7.1,0,12.5,5.2,12.5,12c0,6.8-5.3,12-12.5,12c-7.1,0-12.5-5.2-12.5-12
		C290.8,40.7,296.1,35.5,303.2,35.5z M303.2,38.7c-5.2,0-8.8,3.8-8.8,8.8c0,5,3.6,8.8,8.8,8.8c5.2,0,8.8-3.8,8.8-8.8
		C312.1,42.5,308.5,38.7,303.2,38.7z"/>
	<path class="st1" d="M329.5,42.2h13v3.9h-13V42.2z"/>
	<path class="st1" d="M377.2,58.8V41.9c0-1.7-0.7-3.3-2.7-3.3c-1.9,0-3.1,1.4-4.2,4.3v11.9l0.9,0.9h2.2v3.1h-6.1V41.9
		c0-1.7-0.7-3.3-2.7-3.3c-1.9,0-3.1,1.4-4.2,4.3v11.9l0.9,0.9h2.2v3.1h-9.6v-3.1h2.7l0.9-0.9V40.2l-0.9-0.9h-2.7v-3.1h6.6v3.5
		c0.8-2.5,2.5-4.2,5-4.2c2.6,0,4.3,1.6,4.8,4.1c0.8-2.3,2.7-4.1,5.2-4.1c3,0,4.9,2,4.9,5.6v13.8l0.9,0.9h2.9v3.1H377.2z"/>
	<path class="st1" d="M400.3,35.5c6,0,9.3,3.1,9.3,8.3v9.5c0,1.9,0.6,3.1,2.1,3.1c1,0,1.8-0.6,3.1-1.9l1.7,2.3
		c-1.9,2-3.4,2.8-5.4,2.8c-2.5,0-4.5-1.7-4.8-4.8c-2.4,2.6-6.2,4.8-10.3,4.8c-4.3,0-7.3-2.1-7.3-6.1c0-3.8,3.1-5.6,8.3-6.8l9.3-2.3
		v-0.7c0-3.5-2.4-5.3-6.4-5.3c-2.7,0-4.2,0.3-5.8,1.1c0.8,0.3,1.4,1.1,1.4,2.2c0,1.4-1.2,2.5-2.8,2.5c-1.7,0-2.9-1.1-2.9-2.9
		C389.8,37.3,395.3,35.5,400.3,35.5z M406.3,47l-8.6,2.4c-3,0.5-5.4,1.6-5.4,3.9c0,2.2,1.9,3.2,4,3.2c3.6,0,6.8-2,9.9-5V47z"/>
	<path class="st1" d="M425.4,39.3h-5.3v-3.1h6.7V28h3.4v8.2h13.3v3.1h-12l-1.4,1.4v7.4c0,5.9,2.7,8.3,7,8.3c3.6,0,6.1-1.9,8.2-4.7
		l2.1,2c-2.3,3.4-6,5.9-10.3,5.9c-6,0-10.3-3.1-10.3-11v-7.9L425.4,39.3z"/>
	<path class="st1" d="M466.8,35.5c7.1,0,12.5,5.2,12.5,12c0,6.8-5.3,12-12.5,12c-7.1,0-12.5-5.2-12.5-12
		C454.4,40.7,459.7,35.5,466.8,35.5z M466.8,38.7c-5.2,0-8.8,3.8-8.8,8.8c0,5,3.6,8.8,8.8,8.8s8.8-3.8,8.8-8.8
		C475.7,42.5,472.1,38.7,466.8,38.7z"/>
	<path class="st1" d="M508.9,40.4c0.3,0,0.7,0.1,0.9,0.2c0-0.2-0.1-0.4-0.2-0.6c-0.3-0.9-1.3-1.5-2.9-1.5c-3.5,0-7.2,3.4-10.8,7.8v8
		l1.4,1.4h9.5v3.1H486v-3.1h5.3l1.4-1.4V40.7l-1.4-1.4H486v-3.1h9.9v6.2c2.9-3.7,6.7-7,10.8-7c4.6,0,6.5,2.9,6.5,5.8
		c0,2.5-1.5,4.4-3.7,4.4c-1.7,0-3-0.9-3-2.8C506.4,41.3,507.6,40.4,508.9,40.4z"/>
</g>
<g class="st0">
	<path class="st2" d="M78.3,55.7h8.2v3.1H63.3v-3.1h9l1.4-1.4V40.7l-1.4-1.4h-9v-3.1h13.5v18.1L78.3,55.7z M74.4,24
		c2,0,3.6,1.5,3.6,3.6c0,1.9-1.5,3.4-3.6,3.4c-1.9,0-3.4-1.5-3.4-3.4C71,25.5,72.4,24,74.4,24z"/>
	<path class="st2" d="M100.7,54.3l1.4,1.4h3.3v3.1H92.9v-3.1h3.3l1.4-1.4V40.7l-1.4-1.4h-3.3v-3.1h7.9v4c1.5-2.4,4.5-4.7,8.3-4.7
		c4.8,0,8.5,2.8,8.5,8.5v10.3l1.4,1.4h3.3v3.1h-12.6v-3.1h3.3l1.4-1.4v-9.3c0-3.7-1.3-6.4-5.4-6.4c-3.8,0-6.4,2.2-8.2,5.5V54.3z"/>
	<path class="st2" d="M135.8,48c-4.6-1-7.2-2.7-7.2-6.2c0-3.8,3.6-6.3,8.4-6.3c3.4,0,6.7,1.2,8.6,3.4l0.7-0.2v-2.5h3v7.7h-2.5
		c-1.8-3.4-5.8-5.6-9.4-5.6c-3.1,0-5.4,1.3-5.4,3.4c0,2,1.9,2.7,4.7,3.2l8,1.7c3.7,0.8,6.1,2.3,6.1,6c0,4.3-3.4,6.9-9,6.9
		c-4.5,0-7.9-1.9-9.8-4l-0.7,0.5v2.7h-3v-8.3h2.8c2.6,3.9,6.3,6.1,10.6,6.1c3.4,0,5.7-1.3,5.7-3.9c0-2-1.7-2.7-3.9-3.1L135.8,48z"/>
	<path class="st2" d="M182,36.2v18.1l1.4,1.4h3.3v3.1h-7.9v-4c-1.5,2.4-4.5,4.7-8.3,4.7c-4.8,0-8.5-2.8-8.5-8.5V40.7l-1.4-1.4h-3.3
		v-3.1h7.9V50c0,4.2,1.6,6.4,5.4,6.4c3.8,0,6.4-2.2,8.2-5.5V40.7l-1.4-1.4h-3.3v-3.1H182z"/>
	<path class="st2" d="M209.1,55.7h8.2v3.1h-23.1v-3.1h9l1.4-1.4V30.6l-1.4-1.4h-9v-3.1h13.5v28.2L209.1,55.7z"/>
	<path class="st2" d="M229.1,39.3h-5.3v-3.1h6.7V28h3.4v8.2h13.3v3.1h-12l-1.4,1.4v7.4c0,5.9,2.7,8.3,7,8.3c3.6,0,6.1-1.9,8.2-4.7
		l2.1,2c-2.3,3.4-6,5.9-10.3,5.9c-6,0-10.3-3.1-10.3-11v-7.9L229.1,39.3z"/>
	<path class="st2" d="M264,42.2h13v3.9h-13V42.2z"/>
	<path class="st2" d="M303.2,35.5c7.1,0,12.5,5.2,12.5,12c0,6.8-5.3,12-12.5,12c-7.1,0-12.5-5.2-12.5-12
		C290.8,40.7,296.1,35.5,303.2,35.5z M303.2,38.7c-5.2,0-8.8,3.8-8.8,8.8c0,5,3.6,8.8,8.8,8.8c5.2,0,8.8-3.8,8.8-8.8
		C312.1,42.5,308.5,38.7,303.2,38.7z"/>
	<path class="st2" d="M329.5,42.2h13v3.9h-13V42.2z"/>
	<path class="st2" d="M377.2,58.8V41.9c0-1.7-0.7-3.3-2.7-3.3c-1.9,0-3.1,1.4-4.2,4.3v11.9l0.9,0.9h2.2v3.1h-6.1V41.9
		c0-1.7-0.7-3.3-2.7-3.3c-1.9,0-3.1,1.4-4.2,4.3v11.9l0.9,0.9h2.2v3.1h-9.6v-3.1h2.7l0.9-0.9V40.2l-0.9-0.9h-2.7v-3.1h6.6v3.5
		c0.8-2.5,2.5-4.2,5-4.2c2.6,0,4.3,1.6,4.8,4.1c0.8-2.3,2.7-4.1,5.2-4.1c3,0,4.9,2,4.9,5.6v13.8l0.9,0.9h2.9v3.1H377.2z"/>
	<path class="st2" d="M400.3,35.5c6,0,9.3,3.1,9.3,8.3v9.5c0,1.9,0.6,3.1,2.1,3.1c1,0,1.8-0.6,3.1-1.9l1.7,2.3
		c-1.9,2-3.4,2.8-5.4,2.8c-2.5,0-4.5-1.7-4.8-4.8c-2.4,2.6-6.2,4.8-10.3,4.8c-4.3,0-7.3-2.1-7.3-6.1c0-3.8,3.1-5.6,8.3-6.8l9.3-2.3
		v-0.7c0-3.5-2.4-5.3-6.4-5.3c-2.7,0-4.2,0.3-5.8,1.1c0.8,0.3,1.4,1.1,1.4,2.2c0,1.4-1.2,2.5-2.8,2.5c-1.7,0-2.9-1.1-2.9-2.9
		C389.8,37.3,395.3,35.5,400.3,35.5z M406.3,47l-8.6,2.4c-3,0.5-5.4,1.6-5.4,3.9c0,2.2,1.9,3.2,4,3.2c3.6,0,6.8-2,9.9-5V47z"/>
	<path class="st2" d="M425.4,39.3h-5.3v-3.1h6.7V28h3.4v8.2h13.3v3.1h-12l-1.4,1.4v7.4c0,5.9,2.7,8.3,7,8.3c3.6,0,6.1-1.9,8.2-4.7
		l2.1,2c-2.3,3.4-6,5.9-10.3,5.9c-6,0-10.3-3.1-10.3-11v-7.9L425.4,39.3z"/>
	<path class="st2" d="M466.8,35.5c7.1,0,12.5,5.2,12.5,12c0,6.8-5.3,12-12.5,12c-7.1,0-12.5-5.2-12.5-12
		C454.4,40.7,459.7,35.5,466.8,35.5z M466.8,38.7c-5.2,0-8.8,3.8-8.8,8.8c0,5,3.6,8.8,8.8,8.8s8.8-3.8,8.8-8.8
		C475.7,42.5,472.1,38.7,466.8,38.7z"/>
	<path class="st2" d="M508.9,40.4c0.3,0,0.7,0.1,0.9,0.2c0-0.2-0.1-0.4-0.2-0.6c-0.3-0.9-1.3-1.5-2.9-1.5c-3.5,0-7.2,3.4-10.8,7.8v8
		l1.4,1.4h9.5v3.1H486v-3.1h5.3l1.4-1.4V40.7l-1.4-1.4H486v-3.1h9.9v6.2c2.9-3.7,6.7-7,10.8-7c4.6,0,6.5,2.9,6.5,5.8
		c0,2.5-1.5,4.4-3.7,4.4c-1.7,0-3-0.9-3-2.8C506.4,41.3,507.6,40.4,508.9,40.4z"/>
</g>
<g class="st0">
	<path class="st1" d="M78.3,55.7h8.2v3.1H63.3v-3.1h9l1.4-1.4V40.7l-1.4-1.4h-9v-3.1h13.5v18.1L78.3,55.7z M74.4,24
		c2,0,3.6,1.5,3.6,3.6c0,1.9-1.5,3.4-3.6,3.4c-1.9,0-3.4-1.5-3.4-3.4C71,25.5,72.4,24,74.4,24z"/>
	<path class="st1" d="M100.7,54.3l1.4,1.4h3.3v3.1H92.9v-3.1h3.3l1.4-1.4V40.7l-1.4-1.4h-3.3v-3.1h7.9v4c1.5-2.4,4.5-4.7,8.3-4.7
		c4.8,0,8.5,2.8,8.5,8.5v10.3l1.4,1.4h3.3v3.1h-12.6v-3.1h3.3l1.4-1.4v-9.3c0-3.7-1.3-6.4-5.4-6.4c-3.8,0-6.4,2.2-8.2,5.5V54.3z"/>
	<path class="st1" d="M135.8,48c-4.6-1-7.2-2.7-7.2-6.2c0-3.8,3.6-6.3,8.4-6.3c3.4,0,6.7,1.2,8.6,3.4l0.7-0.2v-2.5h3v7.7h-2.5
		c-1.8-3.4-5.8-5.6-9.4-5.6c-3.1,0-5.4,1.3-5.4,3.4c0,2,1.9,2.7,4.7,3.2l8,1.7c3.7,0.8,6.1,2.3,6.1,6c0,4.3-3.4,6.9-9,6.9
		c-4.5,0-7.9-1.9-9.8-4l-0.7,0.5v2.7h-3v-8.3h2.8c2.6,3.9,6.3,6.1,10.6,6.1c3.4,0,5.7-1.3,5.7-3.9c0-2-1.7-2.7-3.9-3.1L135.8,48z"/>
	<path class="st1" d="M182,36.2v18.1l1.4,1.4h3.3v3.1h-7.9v-4c-1.5,2.4-4.5,4.7-8.3,4.7c-4.8,0-8.5-2.8-8.5-8.5V40.7l-1.4-1.4h-3.3
		v-3.1h7.9V50c0,4.2,1.6,6.4,5.4,6.4c3.8,0,6.4-2.2,8.2-5.5V40.7l-1.4-1.4h-3.3v-3.1H182z"/>
	<path class="st1" d="M209.1,55.7h8.2v3.1h-23.1v-3.1h9l1.4-1.4V30.6l-1.4-1.4h-9v-3.1h13.5v28.2L209.1,55.7z"/>
	<path class="st1" d="M229.1,39.3h-5.3v-3.1h6.7V28h3.4v8.2h13.3v3.1h-12l-1.4,1.4v7.4c0,5.9,2.7,8.3,7,8.3c3.6,0,6.1-1.9,8.2-4.7
		l2.1,2c-2.3,3.4-6,5.9-10.3,5.9c-6,0-10.3-3.1-10.3-11v-7.9L229.1,39.3z"/>
	<path class="st1" d="M264,42.2h13v3.9h-13V42.2z"/>
	<path class="st1" d="M303.2,35.5c7.1,0,12.5,5.2,12.5,12c0,6.8-5.3,12-12.5,12c-7.1,0-12.5-5.2-12.5-12
		C290.8,40.7,296.1,35.5,303.2,35.5z M303.2,38.7c-5.2,0-8.8,3.8-8.8,8.8c0,5,3.6,8.8,8.8,8.8c5.2,0,8.8-3.8,8.8-8.8
		C312.1,42.5,308.5,38.7,303.2,38.7z"/>
	<path class="st1" d="M329.5,42.2h13v3.9h-13V42.2z"/>
	<path class="st1" d="M377.2,58.8V41.9c0-1.7-0.7-3.3-2.7-3.3c-1.9,0-3.1,1.4-4.2,4.3v11.9l0.9,0.9h2.2v3.1h-6.1V41.9
		c0-1.7-0.7-3.3-2.7-3.3c-1.9,0-3.1,1.4-4.2,4.3v11.9l0.9,0.9h2.2v3.1h-9.6v-3.1h2.7l0.9-0.9V40.2l-0.9-0.9h-2.7v-3.1h6.6v3.5
		c0.8-2.5,2.5-4.2,5-4.2c2.6,0,4.3,1.6,4.8,4.1c0.8-2.3,2.7-4.1,5.2-4.1c3,0,4.9,2,4.9,5.6v13.8l0.9,0.9h2.9v3.1H377.2z"/>
	<path class="st1" d="M400.3,35.5c6,0,9.3,3.1,9.3,8.3v9.5c0,1.9,0.6,3.1,2.1,3.1c1,0,1.8-0.6,3.1-1.9l1.7,2.3
		c-1.9,2-3.4,2.8-5.4,2.8c-2.5,0-4.5-1.7-4.8-4.8c-2.4,2.6-6.2,4.8-10.3,4.8c-4.3,0-7.3-2.1-7.3-6.1c0-3.8,3.1-5.6,8.3-6.8l9.3-2.3
		v-0.7c0-3.5-2.4-5.3-6.4-5.3c-2.7,0-4.2,0.3-5.8,1.1c0.8,0.3,1.4,1.1,1.4,2.2c0,1.4-1.2,2.5-2.8,2.5c-1.7,0-2.9-1.1-2.9-2.9
		C389.8,37.3,395.3,35.5,400.3,35.5z M406.3,47l-8.6,2.4c-3,0.5-5.4,1.6-5.4,3.9c0,2.2,1.9,3.2,4,3.2c3.6,0,6.8-2,9.9-5V47z"/>
	<path class="st1" d="M425.4,39.3h-5.3v-3.1h6.7V28h3.4v8.2h13.3v3.1h-12l-1.4,1.4v7.4c0,5.9,2.7,8.3,7,8.3c3.6,0,6.1-1.9,8.2-4.7
		l2.1,2c-2.3,3.4-6,5.9-10.3,5.9c-6,0-10.3-3.1-10.3-11v-7.9L425.4,39.3z"/>
	<path class="st1" d="M466.8,35.5c7.1,0,12.5,5.2,12.5,12c0,6.8-5.3,12-12.5,12c-7.1,0-12.5-5.2-12.5-12
		C454.4,40.7,459.7,35.5,466.8,35.5z M466.8,38.7c-5.2,0-8.8,3.8-8.8,8.8c0,5,3.6,8.8,8.8,8.8s8.8-3.8,8.8-8.8
		C475.7,42.5,472.1,38.7,466.8,38.7z"/>
	<path class="st1" d="M508.9,40.4c0.3,0,0.7,0.1,0.9,0.2c0-0.2-0.1-0.4-0.2-0.6c-0.3-0.9-1.3-1.5-2.9-1.5c-3.5,0-7.2,3.4-10.8,7.8v8
		l1.4,1.4h9.5v3.1H486v-3.1h5.3l1.4-1.4V40.7l-1.4-1.4H486v-3.1h9.9v6.2c2.9-3.7,6.7-7,10.8-7c4.6,0,6.5,2.9,6.5,5.8
		c0,2.5-1.5,4.4-3.7,4.4c-1.7,0-3-0.9-3-2.8C506.4,41.3,507.6,40.4,508.9,40.4z"/>
</g>
</svg>
