<?xml version="1.0" encoding="utf-8"?>
<!-- Generator: Adobe Illustrator 19.2.1, SVG Export Plug-In . SVG Version: 6.00 Build 0)  -->
<svg version="1.1" id="Layer_1" xmlns="http://www.w3.org/2000/svg" xmlns:xlink="http://www.w3.org/1999/xlink" x="0px" y="0px"
	 viewBox="0 0 5 5" style="enable-background:new 0 0 5 5;" xml:space="preserve">
<style type="text/css">
	.st0{clip-path:url(#SVGID_2_);}
	.st1{fill:none;stroke:#FF2C2C;stroke-width:2;stroke-linecap:round;stroke-linejoin:round;stroke-miterlimit:10;}
	.st2{fill:#8B2525;}
</style>
<g id="Layer_1_1_">
	<g>
		<defs>
			<rect id="SVGID_1_" x="74" y="79.2" width="300" height="300"/>
		</defs>
		<clipPath id="SVGID_2_">
			<use xlink:href="#SVGID_1_"  style="overflow:visible;"/>
		</clipPath>
		<g class="st0">
			<path class="st1" d="M-13.8-33.3l4.7-3.6c4.5-3.4,11.8-3.4,16.3,0l54,41.1l-54,41.1c-4.5,3.4-11.8,3.4-16.3,0l-54-41.1"/>
		</g>
	</g>
	<g>
		<circle class="st2" cx="2.5" cy="2.5" r="0.7"/>
		<path class="st2" d="M0.7,5c0-0.4-0.3-0.7-0.7-0.7V5H0.7z M4.3,0c0,0.4,0.3,0.7,0.7,0.7V0H4.3z M0.7,0H0v0.7
			C0.4,0.7,0.7,0.4,0.7,0z M4.3,5H5V4.3C4.6,4.3,4.3,4.6,4.3,5z"/>
	</g>
</g>
</svg>
